<svg width="25" height="24" viewBox="0 0 25 24" fill="none" xmlns="http://www.w3.org/2000/svg">
<path d="M19.3335 7H16.3335V6C16.3335 4.93913 15.9121 3.92172 15.1619 3.17157C14.4118 2.42143 13.3944 2 12.3335 2C11.2726 2 10.2552 2.42143 9.50507 3.17157C8.75492 3.92172 8.3335 4.93913 8.3335 6V7H5.3335C5.06828 7 4.81393 7.10536 4.62639 7.29289C4.43885 7.48043 4.3335 7.73478 4.3335 8V19C4.3335 19.7956 4.64957 20.5587 5.21218 21.1213C5.77478 21.6839 6.53785 22 7.3335 22H17.3335C18.1291 22 18.8922 21.6839 19.4548 21.1213C20.0174 20.5587 20.3335 19.7956 20.3335 19V8C20.3335 7.73478 20.2281 7.48043 20.0406 7.29289C19.8531 7.10536 19.5987 7 19.3335 7ZM10.3335 6C10.3335 5.46957 10.5442 4.96086 10.9193 4.58579C11.2944 4.21071 11.8031 4 12.3335 4C12.8639 4 13.3726 4.21071 13.7477 4.58579C14.1228 4.96086 14.3335 5.46957 14.3335 6V7H10.3335V6ZM18.3335 19C18.3335 19.2652 18.2281 19.5196 18.0406 19.7071C17.8531 19.8946 17.5987 20 17.3335 20H7.3335C7.06828 20 6.81393 19.8946 6.62639 19.7071C6.43885 19.5196 6.3335 19.2652 6.3335 19V9H8.3335V10C8.3335 10.2652 8.43885 10.5196 8.62639 10.7071C8.81393 10.8946 9.06828 11 9.3335 11C9.59871 11 9.85307 10.8946 10.0406 10.7071C10.2281 10.5196 10.3335 10.2652 10.3335 10V9H14.3335V10C14.3335 10.2652 14.4389 10.5196 14.6264 10.7071C14.8139 10.8946 15.0683 11 15.3335 11C15.5987 11 15.8531 10.8946 16.0406 10.7071C16.2281 10.5196 16.3335 10.2652 16.3335 10V9H18.3335V19Z" fill="#EDA708"/>
</svg>
