<svg width="32" height="32" viewBox="0 0 32 32" fill="none" xmlns="http://www.w3.org/2000/svg">
<g clip-path="url(#clip0_44_339)">
<path d="M15.9996 8.32762L19.7993 5.16129H24.7738V0H12.3867V5.16129H15.9996V8.32762ZM13.419 4.12903V1.03226H23.7416V4.12903H19.4258L17.0319 6.12399V4.12903H13.419Z" fill="#EDA708"/>
<path d="M14.4512 2.06445H15.4834V3.09671H14.4512V2.06445Z" fill="#EDA708"/>
<path d="M16.5166 2.06445H20.6456V3.09671H16.5166V2.06445Z" fill="#EDA708"/>
<path d="M21.6777 2.06445H22.71V3.09671H21.6777V2.06445Z" fill="#EDA708"/>
<path d="M26.2734 30.9677L25.8561 26.7896C27.5794 26.5171 28.9032 25.025 28.9032 23.2258V16.5161H26.8387V15.8029C26.8387 15.1013 26.4531 14.4713 25.8332 14.1482C26.4496 13.5819 26.8387 12.7722 26.8387 11.871V10.8387C26.8387 9.1308 25.4499 7.74194 23.7419 7.74194C22.034 7.74194 20.6452 9.1308 20.6452 10.8387V11.871C20.6452 13.2072 21.4972 14.3448 22.6855 14.7782L19.9153 17.5484H17.0209C16.9632 16.688 16.3722 15.938 15.535 15.6986L13.4194 15.0948V14.1729C14.0512 13.6056 14.4516 12.7855 14.4516 11.871V10.8387C14.4516 9.1308 13.0628 7.74194 11.3548 7.74194C9.64693 7.74194 8.25807 9.1308 8.25807 10.8387V11.871C8.25807 12.785 8.65852 13.6051 9.29032 14.1729V15.0953L7.17465 15.6991C6.2931 15.9504 5.67742 16.7669 5.67742 17.6842V19.6129H3.6129V22.7097H4.64516V30.9677H0V32H32V30.9677H26.2734ZM21.6774 22.7097V20.3427L25.3347 16.6855C25.599 16.4211 25.7563 16.066 25.7916 15.6956C25.7961 15.7316 25.8065 15.7656 25.8065 15.8029V22.1936C25.8065 23.0471 25.1116 23.7419 24.2581 23.7419H20.129V22.7097H21.6774ZM20.129 26.8387H22.7588L23.1716 30.9677H20.129V26.8387ZM23.7961 26.8387H24.8233L25.2361 30.9677H24.2089L23.7961 26.8387ZM26.8387 22.1936V17.5484H27.871V23.2258C27.871 24.6487 26.7132 25.8065 25.2903 25.8065H20.129V24.7742H24.2581C25.681 24.7742 26.8387 23.6164 26.8387 22.1936ZM21.6774 11.871V10.8387C21.6774 9.70011 22.6033 8.7742 23.7419 8.7742C24.8805 8.7742 25.8065 9.70011 25.8065 10.8387V11.871C25.8065 13.0096 24.8805 13.9355 23.7419 13.9355C22.6033 13.9355 21.6774 13.0096 21.6774 11.871ZM20.3427 18.5807L23.7863 15.1371C23.8942 15.0292 24.0433 14.9677 24.1956 14.9677C24.5146 14.9677 24.7742 15.2273 24.7742 15.5464C24.7742 15.6986 24.7127 15.8478 24.6048 15.9557L20.9476 19.6129H15.4839C15.1991 19.6129 14.9677 19.3816 14.9677 19.0968C14.9677 18.812 15.1991 18.5807 15.4839 18.5807H20.3427ZM9.29032 10.8387C9.29032 9.70011 10.2162 8.7742 11.3548 8.7742C12.4934 8.7742 13.4194 9.70011 13.4194 10.8387V11.871C13.4194 13.0096 12.4934 13.9355 11.3548 13.9355C10.2162 13.9355 9.29032 13.0096 9.29032 11.871V10.8387ZM11.3548 14.9677C11.7172 14.9677 12.0635 14.9017 12.3871 14.7871V15.3415C12.2591 15.5391 11.9035 16 11.3548 16C10.8062 16 10.4506 15.5391 10.3226 15.3415V14.7871C10.6462 14.9017 10.9924 14.9677 11.3548 14.9677ZM6.70968 17.6842C6.70968 17.2253 7.01789 16.8175 7.45817 16.6915L9.58443 16.0842C9.88382 16.4743 10.4665 17.0323 11.3548 17.0323C12.2432 17.0323 12.8259 16.4743 13.1253 16.0837L15.2515 16.691C15.6469 16.8042 15.9226 17.1479 15.9778 17.5479H15.4839C14.6303 17.5479 13.9355 18.2427 13.9355 19.0963C13.9355 19.278 13.9725 19.4504 14.0305 19.6124H6.70968V17.6842ZM4.64516 20.6452H20.6452V21.6774H4.64516V20.6452ZM5.67742 24.7742H7.22581V23.7419H5.67742V22.7097H19.0968V23.7419H8.25807V24.7742H19.0968V30.9677H17.8674L16.8352 28.9032H7.93901L6.90675 30.9677H5.67742V24.7742ZM16.7132 30.9677H8.06099L8.57712 29.9355H16.1971L16.7132 30.9677Z" fill="#EDA708"/>
</g>
<defs>
<clipPath id="clip0_44_339">
<rect width="32" height="32" fill="white"/>
</clipPath>
</defs>
</svg>
