<svg width="36" height="36" viewBox="0 0 36 36" fill="none" xmlns="http://www.w3.org/2000/svg">
<g clip-path="url(#clip0_44_272)">
<path d="M12.3071 23.7667C12.5821 24.0411 13.0273 24.0411 13.3014 23.7667C13.5763 23.4918 13.5763 23.0469 13.3014 22.7725C13.0273 22.4976 12.5821 22.4976 12.3071 22.7725C12.033 23.0469 12.033 23.4918 12.3071 23.7667Z" fill="#EDA708"/>
<path d="M15.291 21.7776L22.0193 15.0449C22.2937 14.7703 22.2937 14.325 22.019 14.0504C21.7441 13.776 21.2992 13.7763 21.0245 14.0507L14.2962 20.7834C14.0215 21.058 14.0218 21.5032 14.2965 21.7779C14.5711 22.0523 15.0163 22.0523 15.291 21.7776Z" fill="#EDA708"/>
<path d="M11.0756 19.0319L5.01967 25.0879C4.95238 25.1552 4.89634 25.2398 4.86036 25.3345C4.85927 25.3367 4.85817 25.3389 4.85734 25.3411C4.29814 26.8534 2.60157 31.4407 1.93415 33.2452C1.83912 33.5029 1.90256 33.7926 2.09702 33.9866C2.28983 34.1794 2.57932 34.2445 2.8386 34.1483C4.58763 33.4988 9.21673 31.7794 10.7334 31.2161C10.8218 31.1834 10.9141 31.126 10.9858 31.0543L17.0412 24.9989L27.8378 35.8567C27.9699 35.9894 28.1492 36.0641 28.3366 36.0641H28.3371C28.5244 36.0638 28.7041 35.9888 28.8359 35.8559L35.7963 28.8307C36.0688 28.5557 36.0677 28.1124 35.7941 27.8386C35.2574 27.3019 25.4241 17.468 24.9981 17.042C26.8342 15.2059 31.2598 10.7803 32.9475 9.09257C34.5966 7.44544 34.5977 4.7741 32.9478 3.12615C31.2996 1.4771 28.6307 1.47682 26.9814 3.12615L19.0311 11.0764C18.6235 10.6688 8.84539 0.890427 8.23098 0.27629C7.95742 0.00245486 7.51412 0.00135622 7.23919 0.273818L0.208467 7.2334C0.0752573 7.36524 0.000275414 7.54486 7.5466e-07 7.73245C-0.000273904 7.91977 0.0744333 8.09967 0.207368 8.23178L11.0756 19.0319ZM19.5282 12.5681C19.5282 12.5681 19.5282 12.5681 19.5285 12.5678C19.5285 12.5678 19.5285 12.5678 19.5285 12.5676L23.9132 8.18317L27.8905 12.1608L23.5067 16.5443C23.5067 16.5446 23.5067 16.5446 23.5064 16.5446V16.5449L10.4887 29.5626L6.51134 25.585L19.5282 12.5681ZM26.3994 5.69696L30.3767 9.67457L28.8851 11.1662L24.9074 7.1889L26.3994 5.69696ZM6.31661 31.3564L4.72194 29.7617L5.79558 26.8583L9.21673 30.2795L6.31661 31.3564ZM4.18498 31.2136L4.86641 31.895L3.78425 32.2968L4.18498 31.2136ZM25.6347 19.6675L22.622 22.6797C22.3473 22.9541 22.3473 23.3993 22.622 23.6739C22.8964 23.9486 23.3416 23.9486 23.6163 23.6742L26.629 20.662L28.7584 22.7915L26.7402 24.8094C26.4659 25.084 26.4659 25.5293 26.7402 25.8039C27.0149 26.0786 27.4601 26.0783 27.7348 25.8039L29.753 23.7857L31.8827 25.9157L28.8702 28.9279C28.5956 29.2023 28.5956 29.6475 28.8702 29.9221C29.1446 30.1968 29.5898 30.1968 29.8645 29.9221L32.8772 26.9102L34.3049 28.3382C28.3676 34.2703 28.3357 34.3628 28.3357 34.3628L18.0358 24.0043L24.0038 18.0363L25.6347 19.6675ZM31.9535 4.12069C33.0527 5.2185 33.0533 6.99912 31.9533 8.09803L31.3713 8.68003L27.3937 4.70269L27.9759 4.12042C29.0748 3.02123 30.8541 3.02041 31.9535 4.12069ZM9.30023 3.33434L6.28804 6.3457C6.01366 6.62009 6.01366 7.06531 6.28804 7.33997C6.5627 7.61463 7.00792 7.61463 7.28258 7.34024L10.2948 4.32861L12.4242 6.45831L10.4066 8.47541C10.1319 8.75007 10.1319 9.19529 10.4063 9.46995C10.6809 9.74433 11.1259 9.74461 11.4008 9.46995L13.4187 7.45258L15.4064 9.44056L12.3948 12.4525C12.1204 12.7271 12.1204 13.1723 12.3948 13.447C12.6695 13.7214 13.1147 13.7217 13.3893 13.4467L16.401 10.4348L18.0369 12.0707L12.0699 18.0377L1.70151 7.7341C1.70151 7.7341 1.79902 7.70224 7.73137 1.76522L9.30023 3.33434Z" fill="#EDA708"/>
</g>
<defs>
<clipPath id="clip0_44_272">
<rect width="36" height="36" fill="white"/>
</clipPath>
</defs>
</svg>
