<svg width="36" height="36" viewBox="0 0 36 36" fill="none" xmlns="http://www.w3.org/2000/svg">
<path d="M33.7388 17.971C32.9921 16.2689 32.1724 14.5853 31.4028 12.8885C31.2685 12.6258 31.1917 12.2704 30.884 12.1599L23.6236 9.37609L22.1251 6.44223C22.0605 6.31667 21.9512 6.21988 21.8188 6.17095C21.6863 6.12203 21.5404 6.12452 21.4097 6.17795L20.1944 6.67848C20.059 6.73708 19.952 6.8465 19.8965 6.98318C19.841 7.11987 19.8413 7.27289 19.8975 7.4093C19.9537 7.54572 20.0612 7.65461 20.1969 7.71256C20.3326 7.7705 20.4856 7.77285 20.623 7.7191L21.3589 7.41582C22.2075 9.08278 28.055 20.4872 29.0442 22.4318L24.5214 24.4461L16.7887 9.29314L18.5406 8.57456C18.6764 8.51642 18.7839 8.4072 18.8399 8.27047C18.8959 8.13374 18.8958 7.98048 18.8398 7.84378C18.7837 7.70708 18.6762 7.59792 18.5403 7.53985C18.4045 7.48178 18.2512 7.47948 18.1137 7.53343C16.7193 8.15331 13.2904 9.40725 11.812 9.93188C11.7376 9.95975 11.6698 10.003 11.6131 10.0587C11.5564 10.1144 11.5121 10.1815 11.483 10.2555C11.4539 10.3294 11.4406 10.4087 11.4441 10.4881C11.4476 10.5676 11.4678 10.6454 11.5033 10.7165L13.4398 14.5102L9.89014 15.819C9.75214 15.8722 9.6406 15.9775 9.57965 16.1122C9.51869 16.247 9.51321 16.4003 9.5644 16.539C9.61558 16.6778 9.71932 16.7908 9.85318 16.8537C9.98703 16.9166 10.1403 16.9242 10.2797 16.875L13.9552 15.5198L15.4419 18.4323L12.0028 19.8654L7.34167 17.9555L8.10727 17.6739C8.24532 17.6209 8.35697 17.5157 8.41807 17.3811C8.47917 17.2464 8.48481 17.0931 8.43376 16.9544C8.38271 16.8156 8.27908 16.7025 8.14528 16.6395C8.01149 16.5766 7.85829 16.5688 7.71882 16.6179L5.61307 17.3923C5.47305 17.4356 5.35578 17.5325 5.28678 17.6618C5.28678 17.6618 2.31922 23.2635 2.31305 23.2753C2.27797 23.3442 2.25727 23.4196 2.2522 23.4969C2.24714 23.5741 2.25781 23.6515 2.28357 23.7245C2.30933 23.7975 2.34964 23.8645 2.40207 23.9214C2.4545 23.9783 2.51794 24.024 2.58855 24.0557C2.60469 24.059 11.7824 28.0071 11.7986 28.0036C11.9379 28.0585 12.0932 28.0568 12.2312 27.9989L18.8326 25.0745L21.1221 29.5596C21.1899 29.6872 21.3034 29.7844 21.4399 29.8319C21.5764 29.8793 21.7257 29.8734 21.858 29.8154L30.331 25.9391C30.438 25.8902 30.5269 25.809 30.5853 25.7069C30.6437 25.6048 30.6686 25.487 30.6565 25.3699L30.3752 22.6467C30.3632 22.5885 30.319 22.4585 30.3167 22.4484L29.2911 20.4437C29.2911 20.4437 33.4166 18.6149 33.4193 18.6137C33.5352 18.5558 33.629 18.4617 33.6866 18.3458C33.7443 18.2298 33.7626 18.0983 33.7388 17.971ZM11.4417 26.6298L3.59316 23.2624L6.0425 18.6392L11.4417 20.8515L11.4417 26.6298ZM24.3972 10.8777L29.1755 12.7098L26.0096 14.0293L24.3972 10.8777ZM12.5669 26.6197V20.8491L15.955 19.4373L18.3203 24.0709L12.5669 26.6197ZM21.6781 28.174L12.795 10.772L15.7347 9.7028L23.6151 25.1455L21.6781 28.174ZM29.3357 23.5338L29.4959 25.084L23.1264 27.9979L24.6459 25.6224L29.3357 23.5338ZM28.7779 19.4406L26.5236 15.034L30.4068 13.4157L32.4409 17.8167L28.7779 19.4406Z" fill="#EDA708" stroke="#EDA708"/>
</svg>
