<svg id="Capa_1" enable-background="new 0 0 512.275 512.275" height="512" viewBox="0 0 512.275 512.275" width="512" xmlns="http://www.w3.org/2000/svg"><g id="XMLID_189_"><path id="XMLID_3158_" d="m99.195 209.457c-4.382 0-8.795-.537-13.158-1.622-14.024-3.489-25.85-12.23-33.299-24.614l-22.675-37.694c-7.45-12.383-9.631-26.927-6.142-40.95 3.489-14.024 12.23-25.85 24.614-33.299l3.118-1.875c12.383-7.449 26.926-9.63 40.95-6.141s25.85 12.23 33.299 24.614l22.676 37.694c7.449 12.384 9.63 26.927 6.142 40.951-3.489 14.024-12.23 25.85-24.614 33.299l-3.118 1.875c-8.531 5.13-18.088 7.762-27.793 7.762zm-19.697-117.806c-4.323 0-8.581 1.172-12.381 3.458l-3.118 1.875c-5.516 3.318-9.411 8.587-10.965 14.834s-.583 12.727 2.736 18.244l22.675 37.694c3.319 5.517 8.587 9.411 14.834 10.965s12.726.583 18.243-2.736l3.118-1.875c5.517-3.318 9.411-8.587 10.965-14.834s.583-12.727-2.736-18.244l-22.676-37.694c-3.319-5.517-8.587-9.411-14.834-10.965-1.943-.484-3.909-.722-5.861-.722z" fill="#ffde46"/><path id="XMLID_3155_" d="m187.39 356.067c-4.382 0-8.795-.537-13.158-1.622-14.024-3.489-25.85-12.23-33.299-24.614l-22.676-37.694c-15.377-25.563-7.091-58.872 18.472-74.25l3.119-1.876c12.382-7.449 26.924-9.629 40.949-6.141 14.023 3.489 25.849 12.23 33.299 24.613l22.675 37.695c7.449 12.383 9.63 26.926 6.142 40.95s-12.23 25.85-24.614 33.299h.001l-3.117 1.875c-8.532 5.133-18.088 7.765-27.793 7.765zm-19.695-117.791c-4.227 0-8.505 1.11-12.384 3.443l-3.119 1.876c-11.387 6.85-15.079 21.688-8.228 33.077l22.676 37.694c3.319 5.517 8.587 9.411 14.834 10.965 6.249 1.556 12.726.583 18.244-2.736l3.117-1.875c5.517-3.319 9.411-8.587 10.965-14.834 1.554-6.248.583-12.727-2.736-18.243l-22.675-37.695c-4.517-7.509-12.509-11.672-20.694-11.672z" fill="#ffde46"/><path id="XMLID_3154_" d="m117.602 137.389h30v140.216h-30z" fill="#ffeb95" transform="matrix(.857 -.516 .516 .857 -87.985 98.046)"/><path id="XMLID_3153_" d="m30.27-.565h30v125.773h-30z" fill="#ffeb95" transform="matrix(.857 -.516 .516 .857 -25.647 32.254)"/><path id="XMLID_3152_" d="m229.031 391.137-31.421-48.93-22.431-32.226 24.623-17.138 22.901 32.919 31.571 49.165z" fill="#ffeb95"/><path id="XMLID_3148_" d="m413.08 209.457c-9.706 0-19.261-2.631-27.792-7.764l-3.117-1.875c-12.384-7.449-21.125-19.275-24.614-33.299s-1.308-28.567 6.142-40.951l22.675-37.694c7.449-12.383 19.275-21.125 33.299-24.614 14.024-3.488 28.567-1.308 40.951 6.142l3.116 1.874c25.564 15.379 33.851 48.687 18.473 74.25l-22.676 37.695c-7.449 12.383-19.275 21.125-33.299 24.613-4.362 1.086-8.777 1.623-13.158 1.623zm19.697-117.806c-1.953 0-3.918.239-5.862.723-6.248 1.554-11.516 5.448-14.834 10.965l-22.675 37.694c-3.319 5.517-4.291 11.996-2.736 18.244s5.449 11.516 10.965 14.834h.001l3.117 1.875c5.517 3.318 11.995 4.291 18.243 2.735 6.248-1.554 11.516-5.448 14.834-10.965l22.676-37.695c6.851-11.388 3.159-26.227-8.229-33.078l-3.116-1.874c-3.803-2.286-8.06-3.458-12.384-3.458z" fill="#fb3"/><path id="XMLID_3145_" d="m324.885 356.067c-9.706 0-19.26-2.631-27.792-7.764l-3.118-1.875c-12.383-7.449-21.125-19.275-24.613-33.299s-1.308-28.567 6.142-40.951l22.675-37.694c7.45-12.384 19.275-21.125 33.299-24.614 14.025-3.487 28.568-1.308 40.951 6.142l3.116 1.874c12.385 7.451 21.126 19.276 24.615 33.3s1.308 28.567-6.142 40.951l-22.675 37.694c-7.45 12.384-19.275 21.125-33.299 24.614-4.363 1.085-8.777 1.622-13.159 1.622zm19.697-117.806c-1.952 0-3.918.239-5.861.723-6.248 1.554-11.516 5.448-14.835 10.965l-22.675 37.694c-3.319 5.517-4.291 11.996-2.736 18.244 1.554 6.248 5.448 11.516 10.965 14.834l3.118 1.875c11.388 6.852 26.227 3.159 33.078-8.229l22.675-37.694c3.319-5.517 4.291-11.996 2.736-18.243-1.555-6.248-5.449-11.516-10.966-14.835l-3.116-1.874c-3.801-2.288-8.059-3.46-12.383-3.46z" fill="#fb3"/><g fill="#ffde46"><path id="XMLID_3144_" d="m309.565 192.498h140.217v30h-140.217z" transform="matrix(.516 -.857 .857 .516 6.154 425.88)"/><path id="XMLID_3143_" d="m404.118 47.322h125.773v30h-125.773z" transform="matrix(.516 -.857 .857 .516 172.87 430.373)"/><path id="XMLID_3142_" d="m283.599 390.668-25.256-16.191 31.54-49.179 22.59-32.455 24.623 17.138-22.428 32.221z"/></g><path id="XMLID_3229_" d="m257.2 380.913 28.91 57.83-28.91 57.83c-31.94 0-57.83-25.89-57.83-57.83s25.89-57.83 57.83-57.83z" fill="#ffeb95"/><path id="XMLID_3234_" d="m315.02 438.743c0 31.94-25.89 57.83-57.82 57.83v-115.66c31.93 0 57.82 25.89 57.82 57.83z" fill="#ffde46"/><path id="XMLID_3138_" d="m257.2 395.913 20-14.996-20-15.004c-40.16 0-72.83 32.67-72.83 72.83s32.67 72.83 72.83 72.83l20-17.287-20-12.713c-23.62 0-42.83-19.21-42.83-42.83 0-23.61 19.21-42.83 42.83-42.83z" fill="#ffde46"/><path id="XMLID_3227_" d="m330.02 438.743c0 40.16-32.67 72.83-72.82 72.83v-30c23.61 0 42.82-19.21 42.82-42.83 0-23.61-19.21-42.83-42.82-42.83v-30c40.15 0 72.82 32.67 72.82 72.83z" fill="#fb3"/><path id="XMLID_3231_" d="m257.2 423.573 10 15.17-10 15.17h-15v-30.34z" fill="#ff5e94"/><path id="XMLID_3232_" d="m257.2 423.573h15v30.34h-15z" fill="#ff3980"/></g></svg>