<svg xmlns="http://www.w3.org/2000/svg" width="41" height="41" viewBox="0 0 41 41" fill="none">
  <path d="M21.057 20.4591C21.9463 19.6893 22.6595 18.7373 23.1484 17.6675C23.6373 16.5977 23.8903 15.4353 23.8903 14.2591C23.8903 12.049 23.0123 9.92936 21.4495 8.36656C19.8867 6.80376 17.7671 5.92578 15.557 5.92578C13.3468 5.92578 11.2272 6.80376 9.66441 8.36656C8.10161 9.92936 7.22363 12.049 7.22363 14.2591C7.22362 15.4353 7.47664 16.5977 7.96551 17.6675C8.45438 18.7373 9.16767 19.6893 10.057 20.4591C7.72387 21.5156 5.74441 23.2217 4.35527 25.3734C2.96612 27.525 2.22609 30.0313 2.22363 32.5924C2.22363 33.0345 2.39923 33.4584 2.71179 33.771C3.02435 34.0835 3.44827 34.2591 3.8903 34.2591C4.33233 34.2591 4.75625 34.0835 5.06881 33.771C5.38137 33.4584 5.55697 33.0345 5.55697 32.5924C5.55697 29.9403 6.61053 27.3967 8.4859 25.5214C10.3613 23.646 12.9048 22.5924 15.557 22.5924C18.2091 22.5924 20.7527 23.646 22.628 25.5214C24.5034 27.3967 25.557 29.9403 25.557 32.5924C25.557 33.0345 25.7326 33.4584 26.0451 33.771C26.3577 34.0835 26.7816 34.2591 27.2236 34.2591C27.6657 34.2591 28.0896 34.0835 28.4021 33.771C28.7147 33.4584 28.8903 33.0345 28.8903 32.5924C28.8878 30.0313 28.1478 27.525 26.7587 25.3734C25.3695 23.2217 23.3901 21.5156 21.057 20.4591ZM15.557 19.2591C14.5681 19.2591 13.6014 18.9659 12.7791 18.4165C11.9569 17.8671 11.316 17.0862 10.9376 16.1725C10.5591 15.2589 10.4601 14.2536 10.653 13.2837C10.846 12.3138 11.3222 11.4228 12.0214 10.7236C12.7207 10.0243 13.6116 9.54812 14.5815 9.35519C15.5514 9.16226 16.5568 9.26128 17.4704 9.63972C18.384 10.0182 19.1649 10.659 19.7143 11.4813C20.2637 12.3035 20.557 13.2702 20.557 14.2591C20.557 15.5852 20.0302 16.857 19.0925 17.7947C18.1548 18.7323 16.883 19.2591 15.557 19.2591ZM31.7903 19.7924C32.8569 18.5913 33.5536 17.1075 33.7966 15.5197C34.0396 13.9318 33.8185 12.3076 33.1599 10.8424C32.5013 9.37732 31.4333 8.13377 30.0844 7.26149C28.7355 6.3892 27.1633 5.92535 25.557 5.92578C25.1149 5.92578 24.691 6.10138 24.3785 6.41394C24.0659 6.7265 23.8903 7.15042 23.8903 7.59245C23.8903 8.03448 24.0659 8.4584 24.3785 8.77096C24.691 9.08352 25.1149 9.25912 25.557 9.25912C26.883 9.25912 28.1548 9.7859 29.0925 10.7236C30.0302 11.6613 30.557 12.933 30.557 14.2591C30.5546 15.1345 30.3225 15.994 29.8837 16.7515C29.445 17.509 28.8151 18.1381 28.057 18.5758C27.8099 18.7183 27.6035 18.9219 27.4576 19.167C27.3117 19.4121 27.2311 19.6906 27.2236 19.9758C27.2167 20.2587 27.2819 20.5388 27.4131 20.7895C27.5443 21.0403 27.7372 21.2535 27.9736 21.4091L28.6236 21.8424L28.8403 21.9591C30.8493 22.912 32.5442 24.4191 33.7253 26.303C34.9064 28.1868 35.5245 30.369 35.507 32.5924C35.507 33.0345 35.6826 33.4584 35.9951 33.771C36.3077 34.0835 36.7316 34.2591 37.1736 34.2591C37.6157 34.2591 38.0396 34.0835 38.3521 33.771C38.6647 33.4584 38.8403 33.0345 38.8403 32.5924C38.8539 30.0348 38.2133 27.5162 36.9794 25.2759C35.7455 23.0356 33.9592 21.148 31.7903 19.7924Z" fill="white"/>
</svg>