<svg width="36" height="36" viewBox="0 0 36 36" fill="none" xmlns="http://www.w3.org/2000/svg">
<g clip-path="url(#clip0_44_261)">
<path d="M24.4701 10.9089C24.0813 10.9089 23.7656 11.2231 23.7656 11.6118C23.7656 12.0002 24.0813 12.3149 24.4701 12.3149C24.8598 12.3149 25.1746 12.0002 25.1746 11.6118C25.1746 11.2231 24.8598 10.9089 24.4701 10.9089Z" fill="#EDA708"/>
<path d="M11.6698 23.6841C11.2802 23.6841 10.9653 23.9991 10.9653 24.3872C10.9653 24.7761 11.2802 25.0903 11.6698 25.0903C12.0587 25.0903 12.3743 24.7761 12.3743 24.3872C12.3743 23.9991 12.0587 23.6841 11.6698 23.6841Z" fill="#EDA708"/>
<path d="M35.2291 4.32554C34.9913 4.27033 34.7415 4.34202 34.5697 4.51505L31.6491 7.45307H30.2489L28.7075 5.85923V4.44227L31.5863 1.52622C31.7567 1.35374 31.826 1.10572 31.7696 0.869788C31.7135 0.634131 31.5396 0.444067 31.3095 0.366614C30.5863 0.123266 29.8295 -5.53636e-05 29.0598 -5.53636e-05C26.7652 -5.53636e-05 24.6806 1.06782 23.3404 2.92973C22.086 4.67271 21.6994 6.80873 22.2534 8.85301L17.064 14.0322L8.41844 5.3838V3.68641C8.41844 3.43949 8.28855 3.21043 8.07638 3.08353L3.09506 0.100195C2.81766 -0.0659734 2.46293 -0.0223027 2.23452 0.205938L0.242103 2.19419C0.013691 2.42243 -0.0300651 2.77647 0.136153 3.05332L3.12478 8.02491C3.25192 8.23667 3.48116 8.36604 3.72856 8.36631L5.42872 8.36686L14.0751 17.0153L8.90554 22.1748C6.85726 21.6222 4.71596 22.0086 2.96874 23.2613C1.10429 24.5981 0.0351562 26.6781 0.0351562 28.9682C0.0351562 29.7361 0.158719 30.4917 0.402543 31.2132C0.480423 31.4442 0.672785 31.6186 0.910554 31.6735C1.1486 31.7288 1.3982 31.6571 1.5702 31.484L4.49057 28.5463H5.89848L7.50259 30.1473V31.5524L4.5591 34.4671C4.38573 34.6388 4.3139 34.8879 4.36921 35.1255C4.42425 35.3628 4.599 35.5547 4.83044 35.6325C5.55338 35.8758 6.31044 35.9991 7.07989 35.9991C9.37447 35.9991 11.4583 34.9318 12.7979 33.071C14.0531 31.3272 14.4403 29.1904 13.8866 27.1461L18.0385 23.0023L18.9895 24.0334L18.5531 24.4687C18.2779 24.7434 18.2779 25.1886 18.5531 25.4632C18.8283 25.7376 19.2741 25.7376 19.5496 25.4632L19.9447 25.0688L28.8682 34.7429C28.8748 34.75 28.8817 34.7569 28.8886 34.7637C30.5398 36.4117 33.215 36.4122 34.867 34.7635C36.5143 33.1185 36.5143 30.442 34.867 28.7971C34.8598 28.7899 34.8524 28.783 34.8449 28.7762L25.1369 19.8871L25.5276 19.4971C25.8028 19.2227 25.8028 18.7775 25.5276 18.5029C25.2524 18.2282 24.8066 18.2282 24.5312 18.5029L24.0977 18.9357L23.0627 17.9876L27.2347 13.8238C27.8277 13.982 28.4398 14.0622 29.0598 14.0622C32.9444 14.0622 36.1045 10.908 36.1045 7.0312C36.1045 6.26298 35.9809 5.50767 35.7371 4.78587C35.6592 4.55488 35.4669 4.38047 35.2291 4.32554ZM6.21963 7.16715C6.08754 7.03504 5.90838 6.96775 5.72125 6.96775L4.12787 6.9672L1.62744 2.80064L2.84188 1.58857L7.00944 4.08466V5.67494C7.00944 5.86115 7.08347 6.03968 7.21529 6.17152L16.0678 15.0268L15.0713 16.021L6.21963 7.16715ZM24.1395 20.8825L33.8807 29.8015C34.9688 30.899 34.9655 32.6761 33.8705 33.7695C32.773 34.8648 30.9963 34.8681 29.8944 33.7791L20.9418 24.0735L24.1395 20.8825ZM23.1004 19.9308L19.9866 23.038L19.0355 22.0069L22.0654 18.9827L23.1004 19.9308ZM29.0598 12.6559C28.4436 12.6559 27.8376 12.5573 27.2592 12.3629C27.0057 12.278 26.7256 12.3434 26.5362 12.5321C23.0044 16.057 15.3941 23.6522 12.5918 26.4493C12.4025 26.6382 12.3367 26.9178 12.4223 27.1711C13.0079 28.9066 12.7277 30.7578 11.6534 32.2506C10.582 33.739 8.9149 34.5929 7.07989 34.5929C6.87377 34.5929 6.66875 34.5816 6.46565 34.5599L8.70327 32.344C8.83647 32.2122 8.91159 32.0325 8.91159 31.8449V29.8559C8.91159 29.6694 8.83729 29.4906 8.7052 29.3587L6.68829 27.3458C6.55619 27.2139 6.37704 27.1398 6.19018 27.1398H4.19722C4.00926 27.1398 3.82928 27.2147 3.69691 27.3477L1.47691 29.5809C1.45489 29.3782 1.44388 29.1736 1.44388 28.9679C1.44388 27.1362 2.29919 25.4726 3.79075 24.4033C5.28617 23.3311 7.14126 23.0512 8.8805 23.6359C9.13395 23.7214 9.4141 23.6557 9.60344 23.4668C9.64224 23.4283 23.538 9.55943 23.5479 9.54954C23.7372 9.36058 23.8027 9.08125 23.7174 8.82801C23.1315 7.09245 23.4111 5.2418 24.4846 3.75013C25.5568 2.26038 27.2242 1.4062 29.0595 1.4062C29.2719 1.4062 29.483 1.41801 29.6922 1.44108L27.5011 3.66059C27.3712 3.79215 27.2985 3.96931 27.2985 4.15388V6.14295C27.2985 6.32533 27.3692 6.50028 27.4961 6.6313L29.4426 8.64427C29.5752 8.7816 29.7582 8.85905 29.9495 8.85905H31.9424C32.1301 8.85905 32.3101 8.78434 32.4425 8.65113L34.6625 6.41816C34.6845 6.62086 34.6955 6.82548 34.6955 7.0312C34.6955 10.1326 32.1673 12.6559 29.0598 12.6559Z" fill="#EDA708"/>
<path d="M21.9796 13.1031L13.1637 21.9018C12.8888 22.1762 12.8888 22.6214 13.1637 22.896C13.4389 23.1707 13.885 23.1707 14.1602 22.896L22.9761 14.0974C23.2513 13.823 23.2513 13.3777 22.9761 13.1031C22.7009 12.8284 22.2548 12.8284 21.9796 13.1031Z" fill="#EDA708"/>
<path d="M30.8824 31.7812C31.1576 32.055 31.6037 32.055 31.8789 31.7796C32.1536 31.5046 32.1527 31.0594 31.8773 30.7853L25.5271 24.4679C25.2516 24.1938 24.8053 24.1946 24.5309 24.4695C24.256 24.7447 24.2568 25.1897 24.5323 25.4638L30.8824 31.7812Z" fill="#EDA708"/>
</g>
<defs>
<clipPath id="clip0_44_261">
<rect width="36" height="36" fill="white"/>
</clipPath>
</defs>
</svg>
