<svg width="109" height="16" viewBox="0 0 109 16" fill="none" xmlns="http://www.w3.org/2000/svg">
<g clip-path="url(#clip0_6_152)">
<path fill-rule="evenodd" clip-rule="evenodd" d="M8.36332 0L10.3376 6.07631H16.7266L11.5578 9.83163L13.5322 15.9079L8.36332 12.1526L3.19446 15.9079L5.16873 9.83163L0 6.07631H6.38904L8.36332 0Z" fill="#EDA708"/>
<path fill-rule="evenodd" clip-rule="evenodd" d="M31.3558 0L33.3301 6.07631H39.7191L34.5503 9.83163L36.5247 15.9079L31.3558 12.1526L26.1869 15.9079L28.1612 9.83163L22.9925 6.07631H29.3815L31.3558 0Z" fill="#EDA708"/>
<path fill-rule="evenodd" clip-rule="evenodd" d="M54.2423 0L56.2166 6.07631H62.6057L57.4368 9.83163L59.4112 15.9079L54.2423 12.1526L49.0735 15.9079L51.0478 9.83163L45.879 6.07631H52.2681L54.2423 0Z" fill="#EDA708"/>
<path fill-rule="evenodd" clip-rule="evenodd" d="M77.1269 0L79.1012 6.07631H85.4903L80.3214 9.83163L82.2958 15.9079L77.1269 12.1526L71.9581 15.9079L73.9323 9.83163L68.7636 6.07631H75.1527L77.1269 0Z" fill="#EDA708"/>
<path fill-rule="evenodd" clip-rule="evenodd" d="M100.004 0L101.978 6.07631H108.367L103.199 9.83163L105.173 15.9079L100.004 12.1526L94.8352 15.9079L96.8095 9.83163L91.6407 6.07631H98.0298L100.004 0Z" fill="#EDA708"/>
</g>
<defs>
<clipPath id="clip0_6_152">
<rect width="108.431" height="16" fill="white"/>
</clipPath>
</defs>
</svg>
