<svg width="32" height="32" viewBox="0 0 32 32" fill="none" xmlns="http://www.w3.org/2000/svg">
<g clip-path="url(#clip0_45_229)">
<path d="M29.5855 6C29.334 5.99927 29.0848 6.04849 28.8525 6.14479C28.6202 6.24109 28.4092 6.38256 28.232 6.561L24.5 10.293V1C24.5 0.867392 24.4473 0.740215 24.3536 0.646447C24.2598 0.552678 24.1326 0.5 24 0.5H4C3.86739 0.5 3.74021 0.552678 3.64645 0.646447C3.55268 0.740215 3.5 0.867392 3.5 1V3.5H1C0.867392 3.5 0.740215 3.55268 0.646447 3.64645C0.552678 3.74021 0.5 3.86739 0.5 4V31C0.5 31.1326 0.552678 31.2598 0.646447 31.3536C0.740215 31.4473 0.867392 31.5 1 31.5H21C21.1326 31.5 21.2598 31.4473 21.3536 31.3536C21.4473 31.2598 21.5 31.1326 21.5 31V28.5H24C24.1326 28.5 24.2598 28.4473 24.3536 28.3536C24.4473 28.2598 24.5 28.1326 24.5 28V15.707L30.939 9.268C31.2069 9.00035 31.3894 8.65924 31.4633 8.28785C31.5373 7.91646 31.4994 7.53148 31.3545 7.18161C31.2096 6.83175 30.9642 6.53273 30.6493 6.32239C30.3344 6.11206 29.9642 5.99986 29.5855 6ZM19.5 19.293L18.207 18L25.5 10.707L26.793 12L19.5 19.293ZM16.95 20.55L17.6665 18.8775L18.622 19.833L16.95 20.55ZM15.885 20.5H13.5V21.5H15.505C15.5044 21.5825 15.5243 21.6638 15.563 21.7366C15.6017 21.8094 15.6579 21.8715 15.7266 21.9171C15.7953 21.9627 15.8743 21.9905 15.9564 21.9979C16.0386 22.0053 16.1212 21.9921 16.197 21.9595L18.5 20.9725V28.5H3.5V18H16.956L15.885 20.5ZM26.207 10L27 9.207L28.293 10.5L27.5 11.293L26.207 10ZM4.5 1.5H23.5V11.293L21.5 13.293V4C21.5 3.86739 21.4473 3.74021 21.3536 3.64645C21.2598 3.55268 21.1326 3.5 21 3.5H4.5V1.5ZM1.5 30.5V4.5H20.5V14.293L17.793 17H3C2.86739 17 2.74021 17.0527 2.64645 17.1464C2.55268 17.2402 2.5 17.3674 2.5 17.5V29C2.5 29.1326 2.55268 29.2598 2.64645 29.3536C2.74021 29.4473 2.86739 29.5 3 29.5H19C19.1326 29.5 19.2598 29.4473 19.3536 29.3536C19.4473 29.2598 19.5 29.1326 19.5 29V20.544L19.697 20.4595C19.7554 20.4344 19.8085 20.3985 19.8535 20.3535L20.5 19.707V30.5H1.5ZM23.5 27.5H21.5V18.707L23.5 16.707V27.5ZM30.232 8.561L29 9.793L27.707 8.5L28.939 7.268C29.0232 7.18008 29.1241 7.10987 29.2359 7.06147C29.3476 7.01307 29.4678 6.98747 29.5896 6.98616C29.7113 6.98486 29.8321 7.00787 29.9448 7.05386C30.0575 7.09984 30.1599 7.16788 30.246 7.25396C30.3321 7.34005 30.4002 7.44246 30.4461 7.55519C30.4921 7.66792 30.5151 7.78869 30.5138 7.91043C30.5125 8.03217 30.4869 8.15243 30.4385 8.26414C30.3901 8.37585 30.3199 8.47678 30.232 8.561Z" fill="#EDA708"/>
<path d="M11 16.5C12.0878 16.5 13.1512 16.1774 14.0556 15.5731C14.9601 14.9687 15.6651 14.1098 16.0813 13.1048C16.4976 12.0998 16.6065 10.9939 16.3943 9.92701C16.1821 8.86011 15.6583 7.8801 14.8891 7.11092C14.1199 6.34173 13.1399 5.8179 12.073 5.60568C11.0061 5.39346 9.90023 5.50238 8.89524 5.91867C7.89025 6.33495 7.03126 7.0399 6.42692 7.94437C5.82257 8.84884 5.5 9.91221 5.5 11C5.50172 12.4582 6.08174 13.8561 7.11281 14.8872C8.14389 15.9183 9.54184 16.4983 11 16.5ZM11 6.5C11.89 6.5 12.76 6.76392 13.5001 7.25839C14.2401 7.75286 14.8169 8.45566 15.1575 9.27793C15.4981 10.1002 15.5872 11.005 15.4135 11.8779C15.2399 12.7508 14.8113 13.5526 14.182 14.182C13.5526 14.8113 12.7508 15.2399 11.8779 15.4135C11.005 15.5872 10.1002 15.4981 9.27792 15.1575C8.45566 14.8169 7.75285 14.2401 7.25839 13.5001C6.76392 12.76 6.5 11.89 6.5 11C6.50146 9.80698 6.97603 8.66323 7.81963 7.81963C8.66323 6.97603 9.80697 6.50146 11 6.5Z" fill="#EDA708"/>
<path d="M11 13.5C10.7348 13.5 10.4804 13.3946 10.2929 13.2071C10.1054 13.0196 10 12.7652 10 12.5H9C9.00166 12.9421 9.14976 13.3712 9.42115 13.7202C9.69254 14.0692 10.0719 14.3185 10.5 14.429V15H11.5V14.429C11.9708 14.3078 12.3812 14.019 12.6542 13.6167C12.9271 13.2144 13.0439 12.7263 12.9825 12.244C12.9211 11.7618 12.6859 11.3185 12.3208 10.9974C11.9558 10.6762 11.4862 10.4994 11 10.5C10.8022 10.5 10.6089 10.4414 10.4444 10.3315C10.28 10.2216 10.1518 10.0654 10.0761 9.88268C10.0004 9.69996 9.98063 9.49889 10.0192 9.30491C10.0578 9.11093 10.153 8.93275 10.2929 8.79289C10.4327 8.65304 10.6109 8.5578 10.8049 8.51921C10.9989 8.48063 11.2 8.50043 11.3827 8.57612C11.5654 8.65181 11.7216 8.77998 11.8315 8.94443C11.9414 9.10888 12 9.30222 12 9.5H13C12.9983 9.05789 12.8502 8.62879 12.5789 8.27978C12.3075 7.93077 11.9281 7.68152 11.5 7.571V7H10.5V7.571C10.0292 7.69218 9.61878 7.98102 9.34582 8.38332C9.07286 8.78562 8.95611 9.27371 9.01748 9.75598C9.07886 10.2382 9.31413 10.6815 9.67915 11.0026C10.0442 11.3238 10.5138 11.5006 11 11.5C11.2652 11.5 11.5196 11.6054 11.7071 11.7929C11.8946 11.9804 12 12.2348 12 12.5C12 12.7652 11.8946 13.0196 11.7071 13.2071C11.5196 13.3946 11.2652 13.5 11 13.5Z" fill="#EDA708"/>
<path d="M12.5 20.5H6.5V21.5H12.5V20.5Z" fill="#EDA708"/>
<path d="M17.5 22.5H4.5V23.5H17.5V22.5Z" fill="#EDA708"/>
<path d="M17.5 24.5H4.5V25.5H17.5V24.5Z" fill="#EDA708"/>
</g>
<defs>
<clipPath id="clip0_45_229">
<rect width="32" height="32" fill="white"/>
</clipPath>
</defs>
</svg>
