<svg width="36" height="36" viewBox="0 0 36 36" fill="none" xmlns="http://www.w3.org/2000/svg">
<path d="M16.8755 27.5625C22.1483 27.5625 26.438 23.2727 26.438 18C26.438 12.7273 22.1483 8.4375 16.8755 8.4375C11.6027 8.4375 7.31299 12.7273 7.31299 18C7.31299 23.2727 11.6027 27.5625 16.8755 27.5625ZM16.313 9.58169V10.6875C16.313 10.9981 16.5648 11.25 16.8755 11.25C17.1861 11.25 17.438 10.9981 17.438 10.6875V9.58169C21.6431 9.85992 25.0156 13.2323 25.2938 17.4375H24.188C23.8773 17.4375 23.6255 17.6894 23.6255 18C23.6255 18.3106 23.8773 18.5625 24.188 18.5625H25.2938C25.0156 22.7677 21.6431 26.1401 17.438 26.4183V25.3125C17.438 25.0019 17.1861 24.75 16.8755 24.75C16.5648 24.75 16.313 25.0019 16.313 25.3125V26.4183C12.1079 26.1401 8.73541 22.7677 8.45718 18.5625H9.56299C9.87363 18.5625 10.1255 18.3106 10.1255 18C10.1255 17.6894 9.87363 17.4375 9.56299 17.4375H8.45718C8.73534 13.2323 12.1078 9.85985 16.313 9.58169Z" fill="#EDA708"/>
<path d="M29.9535 15.1875H28.9278C28.8225 14.7362 28.6919 14.2947 28.5386 13.8638L29.3259 13.4094C30.0645 12.9838 30.3191 12.0362 29.8929 11.2964L29.1897 10.0785C28.7621 9.33799 27.8171 9.0848 27.0762 9.51272L26.2836 9.97052C26.112 9.76971 25.934 9.57452 25.75 9.3851L24.8883 4.64555C24.7651 3.96745 24.2122 3.46177 23.5412 3.38597L23.2119 1.40998C23.0757 0.593016 22.3757 0 21.5474 0H12.2034C11.3751 0 10.675 0.593016 10.5389 1.41005L10.2096 3.38597C9.53864 3.46177 8.9857 3.96745 8.86251 4.64541L8.00069 9.38503C3.32941 14.1958 3.33679 21.8117 8.00069 26.6149L8.86251 31.3544C8.9857 32.0325 9.53864 32.5382 10.2096 32.614L10.5389 34.59C10.675 35.407 11.3751 36 12.2034 36H21.5474C22.3757 36 23.0758 35.407 23.2119 34.59L23.5412 32.614C24.2122 32.5382 24.7651 32.0325 24.8883 31.3545L25.7501 26.6149C25.934 26.4255 26.1121 26.2303 26.2837 26.0295C27.0754 26.4868 27.3309 26.6955 27.8479 26.6955C28.3818 26.6955 28.9016 26.4204 29.1898 25.9214L29.8932 24.7031C30.3191 23.9638 30.0646 23.0162 29.3263 22.5908L28.5386 22.1362C28.6919 21.7053 28.8225 21.2638 28.9278 20.8125H29.9535C30.8065 20.8125 31.5004 20.1186 31.5004 19.2656V16.7344C31.5004 15.8814 30.8065 15.1875 29.9535 15.1875ZM27.6389 10.4869C27.8397 10.3707 28.0982 10.4379 28.2155 10.641L28.9183 11.8583C29.0345 12.0601 28.9654 12.3186 28.7639 12.4348L28.1091 12.8127C27.7916 12.128 27.4139 11.4768 26.9818 10.8664L27.6389 10.4869ZM11.6486 1.59504C11.694 1.32272 11.9273 1.125 12.2034 1.125H21.5474C21.8235 1.125 22.0569 1.32272 22.1022 1.59504L22.3989 3.375H11.3519L11.6486 1.59504ZM10.3841 4.5H23.3666C23.5705 4.5 23.7449 4.64576 23.7814 4.84678L24.386 8.172C19.949 4.77309 13.7982 4.77591 9.36476 8.172L9.96937 4.84664C10.0059 4.64576 10.1803 4.5 10.3841 4.5ZM16.8754 6.75C23.0786 6.75 28.1254 11.7967 28.1254 18C28.1254 24.2033 23.0786 29.25 16.8754 29.25C10.6721 29.25 5.6254 24.2033 5.6254 18C5.6254 11.7967 10.6721 6.75 16.8754 6.75ZM22.1022 34.405C22.0568 34.6773 21.8235 34.875 21.5474 34.875H12.2034C11.9273 34.875 11.6939 34.6773 11.6486 34.405L11.3519 32.625H22.3989L22.1022 34.405ZM23.3666 31.5C21.9517 31.5 11.7981 31.5 10.3841 31.5C10.1803 31.5 10.0059 31.3542 9.96937 31.1532L9.36476 27.828C13.8018 31.2269 19.9526 31.2241 24.386 27.828L23.7814 31.1534C23.7449 31.3542 23.5704 31.5 23.3666 31.5ZM28.7643 23.5653C28.9655 23.6813 29.0346 23.9397 28.9187 24.141L28.2156 25.3588C28.0987 25.5612 27.8408 25.6297 27.639 25.513L26.9819 25.1334C27.414 24.5231 27.7918 23.8719 28.1092 23.1872L28.7643 23.5653ZM30.3754 19.2656C30.3754 19.4983 30.1862 19.6875 29.9535 19.6875H29.1349C29.2888 18.5638 29.2891 17.4381 29.1349 16.3125H29.9535C30.1862 16.3125 30.3754 16.5017 30.3754 16.7344V19.2656Z" fill="#EDA708"/>
<path d="M16.4777 18.3977C16.6974 18.6174 17.0535 18.6173 17.2732 18.3977L21.7732 13.8977C21.9929 13.678 21.9929 13.3219 21.7732 13.1022C21.5535 12.8826 21.1974 12.8826 20.9777 13.1022L16.8755 17.2045L14.4607 14.7897C14.2411 14.5701 13.8849 14.5701 13.6653 14.7897C13.4456 15.0094 13.4456 15.3655 13.6653 15.5852L16.4777 18.3977Z" fill="#EDA708"/>
</svg>
