<svg id="Layer_1" enable-background="new 0 0 512 512" height="512" viewBox="0 0 512 512" width="512" xmlns="http://www.w3.org/2000/svg"><g><path d="m256 22.004c-135.309 0-244.998 109.69-244.998 244.998 0 112.138 75.341 206.678 178.164 235.768h133.667c102.824-29.09 178.164-123.63 178.164-235.768.001-135.309-109.688-244.998-244.997-244.998z" fill="#37253f"/><path d="m436.217 288.573v-26.184c0-5.082-2.873-9.727-7.42-11.996l-31.466-15.706c7.051 16.678 11.27 34.841 12.082 53.886z" fill="#ffb332"/><path d="m409.398 302.47c-.853 18.902-5.065 36.929-12.067 53.491l31.466-15.706c4.547-2.27 7.42-6.915 7.42-11.997v-25.788z" fill="#fca027"/><g><path d="m450.508 282.439h-41.475c.348 4.25.534 8.546.534 12.885 0 4.34-.186 8.636-.534 12.886h41.475c3.713 0 6.75-3.038 6.75-6.75v-12.27c0-3.714-3.037-6.751-6.75-6.751z" fill="#ffc839"/></g><g><path d="m442.352 274.282h-12.27c-3.713 0-6.75 3.038-6.75 6.75v28.583c0 3.713 3.038 6.75 6.75 6.75h12.27c3.713 0 6.75-3.038 6.75-6.75v-28.583c0-3.712-3.037-6.75-6.75-6.75z" fill="#ffe87f"/></g><path d="m442.352 295.324h-12.27c-3.713 0-6.75-3.038-6.75-6.751v21.042c0 3.713 3.038 6.751 6.75 6.751h12.27c3.713 0 6.751-3.038 6.751-6.751v-21.042c-.001 3.713-3.039 6.751-6.751 6.751z" fill="#ffdd40"/><g><path d="m382.711 206.858-24.252-83.393c-1.995-6.859-8.28-11.577-15.423-11.577h-18.751v45.594c23.341 11.396 43.411 28.448 58.426 49.376z" fill="#ffc839"/></g><g><path d="m187.715 157.482v-45.594h-18.751c-7.143 0-13.428 4.717-15.423 11.577l-24.252 83.393c15.015-20.928 35.085-37.98 58.426-49.376z" fill="#fca027"/></g><g><path d="m284.742 103.665v40.746c15.949 2.976 31.045 8.375 44.888 15.809l-5.313-56.555z" fill="#ffe87f"/></g><path d="m318.33 39.933-2.703-28.768c-.594-6.328-5.906-11.165-12.262-11.165-.83 0-8.256 0-18.623 0v39.933z" fill="#ffe87f"/><path d="m227.258 39.933v-39.933c-9.883 0-17.136 0-18.623 0-6.356 0-11.669 4.837-12.263 11.165l-2.703 28.768z" fill="#ffdd40"/><g><path d="m187.683 103.665-5.313 56.555c13.842-7.434 28.939-12.833 44.888-15.809v-40.746z" fill="#ffdd40"/></g><path d="m187.53 105.292h39.728v-66.986h-33.435z" fill="#ffc839"/><path d="m284.742 105.292h39.728l-6.293-66.986h-33.435z" fill="#ffdd40"/><g><path d="m226.197 71.165v73.448c9.647-1.869 19.609-2.857 29.803-2.857s20.156.987 29.803 2.857v-73.448z" fill="#ffb332"/></g><path d="m268 111.888c-6.6 0-12-5.4-12-12v-28.723h-29.803v73.448c9.647-1.869 19.609-2.857 29.803-2.857s20.156.988 29.803 2.857v-32.725z" fill="#fca027"/><path d="m226.197 72.307h59.606v-72.307c-16.99 0-42.547 0-59.606 0z" fill="#ffc839"/><path d="m256 0c-10.637 0-21.281 0-29.803 0v72.307h29.803z" fill="#ffb332"/><g><path d="m382.711 383.79-24.252 83.393c-1.995 6.859-8.28 11.577-15.423 11.577h-18.751v-45.594c23.341-11.396 43.411-28.448 58.426-49.376z" fill="#ffc839"/></g><g><path d="m187.715 433.166v45.594h-18.751c-7.143 0-13.428-4.717-15.423-11.577l-24.252-83.393c15.015 20.928 35.085 37.98 58.426 49.376z" fill="#fca027"/></g><g><path d="m284.742 486.983v-40.746c15.949-2.976 31.045-8.375 44.888-15.809l-5.313 56.555z" fill="#ffe87f"/></g><g><path d="m187.683 486.983-5.313-56.555c13.842 7.434 28.939 12.833 44.888 15.809v40.746z" fill="#ffdd40"/></g><path d="m189.166 502.77c12.328 3.488 25.056 6.019 38.092 7.543v-24.957h-39.728z" fill="#ffc839"/><path d="m284.742 510.313c13.036-1.524 25.764-4.055 38.092-7.543l1.636-17.414h-39.728z" fill="#ffdd40"/><path d="m226.197 446.034v64.157c9.77 1.186 19.713 1.809 29.803 1.809s20.033-.623 29.803-1.808v-64.158c-9.647 1.87-19.609 2.857-29.803 2.857s-20.156-.987-29.803-2.857z" fill="#ffb332"/><path d="m256 497.356c0-6.6 5.4-12 12-12h17.803v-39.322c-9.647 1.87-19.609 2.857-29.803 2.857s-20.156-.987-29.803-2.857v64.157c9.77 1.186 19.713 1.809 29.803 1.809z" fill="#fca027"/><circle cx="256" cy="295.324" fill="#ffc839" r="155.851"/><path d="m357.05 359.502c-9.562 3-10.312-5.188-10.312-5.188-8.938 1.75-9.126-6.596-9.126-6.596s5.335-12.57-11.095-6.184-18.074-8.26-18.074-8.26c-39.338 5.292-40.15-28.009-40.15-28.009l-26.352-17.167c-32.923 7.784-38.45-30.724-38.45-30.724-32.623 5.684-35.21-25.226-35.21-25.226-8.833 2.833-9.777-6.116-9.777-6.116-25.995 4.165-28.858-16.591-29.173-21.512-18.362 25.57-29.18 56.922-29.18 90.804 0 86.074 69.777 155.851 155.851 155.851 55.352 0 103.958-28.859 131.609-72.347-26.489 7.253-30.561-19.326-30.561-19.326z" fill="#ffb332"/><path d="m328.894 157.548c-6.058 1.948-23.041 9.629-15.448 33.1 9.167 28.333 56.5 68.15 56.5 68.15s26.196 13.729 34.015-12.539c-12.705-38.332-39.886-70.059-75.067-88.711z" fill="#ffdd40"/><g><ellipse cx="256" cy="295.324" fill="#edf1f4" rx="113.946" ry="113.946" transform="matrix(.707 -.707 .707 .707 -133.845 267.518)"/></g><path d="m350.16 359.502c-3.083-1.528-3.423-5.188-3.423-5.188-8.938 1.75-9.126-6.596-9.126-6.596s5.335-12.57-11.095-6.184-18.074-8.26-18.074-8.26c-39.338 5.292-40.15-28.009-40.15-28.009l-26.352-17.167c-32.923 7.784-38.45-30.724-38.45-30.724-32.623 5.684-35.21-25.226-35.21-25.226-3.158 1.013-5.304.517-6.763-.535-12.287 18.186-19.462 40.111-19.462 63.711 0 62.931 51.015 113.946 113.946 113.946 39.126 0 73.642-19.724 94.159-49.768z" fill="#dce2e6"/><g><g><path d="m256 414.979c-65.978 0-119.655-53.677-119.655-119.655s53.677-119.655 119.655-119.655 119.655 53.677 119.655 119.655-53.677 119.655-119.655 119.655zm0-227.893c-59.683 0-108.238 48.555-108.238 108.238s48.555 108.238 108.238 108.238c59.682 0 108.237-48.555 108.237-108.238.001-59.683-48.555-108.238-108.237-108.238z" fill="#ffdd40"/></g></g><path d="m356.923 359.538c-9.439 2.885-10.186-5.224-10.186-5.224-.012.002-.024.004-.036.006-19.333 29.621-52.767 49.241-90.701 49.241-59.682 0-108.238-48.555-108.238-108.238 0-23.544 7.561-45.353 20.375-63.135-8.689 2.687-9.634-6.136-9.636-6.156-13.945 19.566-22.157 43.487-22.157 69.291 0 65.978 53.677 119.655 119.655 119.655 42.366.001 79.656-22.132 100.924-55.44z" fill="#ffc839"/><g><ellipse cx="256" cy="295.324" fill="#dce2e6" rx="64.787" ry="64.787" transform="matrix(.993 -.122 .122 .993 -34.166 33.492)"/></g><path d="m191.213 295.324c0 35.781 29.006 64.787 64.787 64.787 21.575 0 40.675-10.555 52.449-26.774-.005-.038-.008-.063-.008-.063-39.338 5.292-40.15-28.009-40.15-28.009l-26.352-17.167c-32.569 7.7-38.327-29.896-38.447-30.705-7.717 10.664-12.279 23.761-12.279 37.931z" fill="#cbd3d8"/><g><path d="m256 213.714c-3.152 0-5.709-2.555-5.709-5.709v-6.143c0-3.153 2.556-5.708 5.709-5.708s5.709 2.555 5.709 5.708v6.143c0 3.153-2.556 5.709-5.709 5.709z" fill="#6c5475"/></g><g><path d="m256 394.495c-3.152 0-5.709-2.555-5.709-5.709v-6.143c0-3.153 2.556-5.709 5.709-5.709s5.709 2.555 5.709 5.709v6.143c0 3.154-2.556 5.709-5.709 5.709z" fill="#6c5475"/></g><g><path d="m207.397 222.557-3.072-5.321c-1.577-2.73-.641-6.221 2.09-7.798 2.733-1.577 6.222-.64 7.798 2.089l3.072 5.32c1.576 2.731.641 6.222-2.09 7.798-2.712 1.569-6.213.661-7.798-2.088z" fill="#b9bfc1"/></g><g><path d="m297.788 379.12-3.072-5.32c-1.577-2.73-.641-6.221 2.089-7.798 2.732-1.578 6.223-.641 7.798 2.089l3.072 5.321c1.577 2.73.641 6.221-2.09 7.798-2.711 1.566-6.212.658-7.797-2.09z" fill="#b9bfc1"/></g><g><path d="m177.525 256.608-5.32-3.072c-2.731-1.576-3.666-5.068-2.09-7.798 1.576-2.729 5.068-3.668 7.798-2.089l5.32 3.072c2.73 1.577 3.666 5.068 2.089 7.798-1.58 2.739-5.076 3.662-7.797 2.089z" fill="#b9bfc1"/></g><g><path d="m334.087 346.999-5.321-3.072c-2.73-1.576-3.666-5.067-2.089-7.798 1.576-2.729 5.066-3.667 7.798-2.089l5.321 3.072c2.731 1.577 3.666 5.067 2.089 7.798-1.581 2.739-5.077 3.661-7.798 2.089z" fill="#b9bfc1"/></g><g><path d="m168.681 301.033h-6.143c-3.152 0-5.709-2.555-5.709-5.709 0-3.153 2.556-5.709 5.709-5.709h6.143c3.152 0 5.709 2.556 5.709 5.709-.001 3.153-2.557 5.709-5.709 5.709z" fill="#6c5475"/></g><g><path d="m349.463 301.033h-6.143c-3.153 0-5.709-2.555-5.709-5.709 0-3.153 2.556-5.709 5.709-5.709h6.143c3.153 0 5.709 2.556 5.709 5.709-.001 3.153-2.557 5.709-5.709 5.709z" fill="#6c5475"/></g><g><path d="m170.115 344.91c-1.577-2.731-.641-6.221 2.09-7.798l5.32-3.072c2.733-1.577 6.223-.641 7.798 2.089 1.577 2.73.641 6.222-2.089 7.798l-5.32 3.072c-2.713 1.567-6.213.659-7.799-2.089z" fill="#b9bfc1"/></g><g><path d="m326.677 254.519c-1.576-2.731-.641-6.222 2.089-7.798l5.321-3.072c2.732-1.578 6.222-.641 7.798 2.089 1.577 2.73.641 6.222-2.089 7.798l-5.321 3.072c-2.712 1.567-6.212.659-7.798-2.089z" fill="#b9bfc1"/></g><g><path d="m206.414 381.209c-2.73-1.577-3.666-5.068-2.09-7.798l3.072-5.321c1.576-2.729 5.068-3.668 7.798-2.089 2.731 1.577 3.666 5.068 2.09 7.798l-3.072 5.32c-1.581 2.74-5.077 3.662-7.798 2.09z" fill="#b9bfc1"/></g><g><path d="m296.806 224.647c-2.731-1.576-3.666-5.067-2.089-7.798l3.072-5.32c1.576-2.729 5.066-3.667 7.798-2.089 2.731 1.577 3.666 5.067 2.09 7.798l-3.072 5.321c-1.583 2.737-5.079 3.66-7.799 2.088z" fill="#b9bfc1"/></g><g><g><path d="m256 292.66c-3.152 0-5.709-2.556-5.709-5.709v-38.359c0-3.153 2.556-5.709 5.709-5.709s5.709 2.555 5.709 5.709v38.359c0 3.154-2.556 5.709-5.709 5.709z" fill="#6c5475"/></g></g><g><g><path d="m237.03 333.882c-.968 0-1.95-.246-2.849-.766-2.731-1.577-3.666-5.068-2.089-7.798l15.155-26.249c1.576-2.729 5.067-3.667 7.798-2.09s3.666 5.068 2.089 7.798l-15.155 26.249c-1.057 1.831-2.976 2.856-4.949 2.856z" fill="#6c5475"/></g></g><g><path d="m315.462 282.848h-12.637c-6.861 0-12.476 5.614-12.476 12.476 0 6.862 5.615 12.476 12.476 12.476h12.637c6.862 0 12.476-5.614 12.476-12.476 0-6.862-5.614-12.476-12.476-12.476z" fill="#ff4155"/></g><g><ellipse cx="256" cy="295.324" fill="#ffc839" rx="15.81" ry="15.81" transform="matrix(.851 -.526 .526 .851 -117.028 178.694)"/></g><g><path d="m266.094 293.272c0 4.286-3.474 7.76-7.76 7.76s-7.76-3.474-7.76-7.76 3.474-7.76 7.76-7.76 7.76 3.474 7.76 7.76z" fill="#ffdd40"/></g><path d="m500.998 267.002c0-85.297-43.598-160.4-109.716-204.275-5.278 18.689-6.711 45.737 6.049 81.886 27.781 78.701 84.59 85.924 84.59 153.075 0 53.699-23.458 62.709-48.775 88.026-16.077 16.077-28.997 46.269-24.539 72.948 56.302-44.887 92.391-114.055 92.391-191.66z" fill="#45304c"/><path d="m11.002 267.002c0 81.621 39.921 153.909 101.295 198.432 2.058-51.237-50.504-99.951-53.945-169.221-3.449-69.429 23.76-83.898 56.76-151.599 15.939-32.701 14.847-62.415 9.458-84.4-68.274 43.483-113.568 119.844-113.568 206.788z" fill="#45304c"/><path d="m305.291 192.288c-1.594 2.763-.629 6.32 2.174 7.841 25.293 13.73 44.532 37.245 52.604 65.433.984 3.434 4.841 5.131 8.035 3.532l.002-.001c2.446-1.224 3.7-4.018 2.947-6.647-8.918-31.164-30.179-57.168-58.137-72.351-2.702-1.467-6.088-.471-7.625 2.193z" fill="#ffe87f"/></g></svg>