<svg width="20" height="20" viewBox="0 0 20 20" fill="none" xmlns="http://www.w3.org/2000/svg">
<path d="M9.16671 1.6665C7.51853 1.6665 5.90737 2.15524 4.53696 3.07092C3.16655 3.98659 2.09845 5.28808 1.46772 6.8108C0.836985 8.33352 0.671957 10.009 0.9935 11.6255C1.31504 13.2421 2.10872 14.7269 3.27415 15.8923C4.43959 17.0578 5.92445 17.8515 7.54096 18.173C9.15747 18.4945 10.833 18.3295 12.3557 17.6988C13.8785 17.0681 15.1799 16 16.0956 14.6295C17.0113 13.2591 17.5 11.648 17.5 9.99983C17.5 8.90548 17.2845 7.82185 16.8657 6.8108C16.4469 5.79975 15.8331 4.88109 15.0593 4.10727C14.2854 3.33345 13.3668 2.71962 12.3557 2.30083C11.3447 1.88204 10.2611 1.6665 9.16671 1.6665ZM9.16671 16.6665C7.84817 16.6665 6.55924 16.2755 5.46291 15.5429C4.36658 14.8104 3.5121 13.7692 3.00751 12.551C2.50293 11.3328 2.37091 9.99243 2.62814 8.69923C2.88538 7.40602 3.52032 6.21814 4.45267 5.28578C5.38502 4.35343 6.5729 3.7185 7.86611 3.46126C9.15932 3.20403 10.4998 3.33605 11.7179 3.84063C12.9361 4.34522 13.9773 5.1997 14.7098 6.29603C15.4424 7.39236 15.8334 8.68129 15.8334 9.99983C15.8334 11.7679 15.131 13.4636 13.8808 14.7138C12.6305 15.9641 10.9348 16.6665 9.16671 16.6665ZM10 9.9415V5.83316C10 5.61215 9.91225 5.40019 9.75597 5.24391C9.59969 5.08763 9.38772 4.99983 9.16671 4.99983C8.9457 4.99983 8.73374 5.08763 8.57746 5.24391C8.42118 5.40019 8.33338 5.61215 8.33338 5.83316V9.99983C8.33338 9.99983 8.33338 10.0581 8.33338 10.0915C8.31287 10.2609 8.34487 10.4325 8.42504 10.5831L9.67504 12.7498C9.78555 12.9421 9.96792 13.0826 10.182 13.1404C10.3961 13.1982 10.6244 13.1686 10.8167 13.0581C11.009 12.9476 11.1495 12.7653 11.2073 12.5511C11.2651 12.337 11.2356 12.1087 11.125 11.9165L10 9.9415Z" fill="#EDA708"/>
</svg>
