<svg width="20" height="20" viewBox="0 0 20 20" fill="none" xmlns="http://www.w3.org/2000/svg">
<path d="M15 3.73318C13.6739 2.4071 11.8754 1.66211 10 1.66211C8.12466 1.66211 6.3261 2.4071 5.00002 3.73318C3.67394 5.05926 2.92896 6.85782 2.92896 8.73318C2.92896 10.6085 3.67394 12.407 5.00002 13.7331L9.39169 18.1332C9.46916 18.2113 9.56133 18.2732 9.66288 18.3155C9.76442 18.3578 9.87335 18.3797 9.98336 18.3797C10.0934 18.3797 10.2023 18.3578 10.3038 18.3155C10.4054 18.2732 10.4976 18.2113 10.575 18.1332L15 13.6915C16.3206 12.3709 17.0624 10.5798 17.0624 8.71235C17.0624 6.8448 16.3206 5.05374 15 3.73318ZM13.8084 12.4998L10 16.3249L6.19168 12.4998C5.4393 11.7467 4.92708 10.7875 4.71976 9.74342C4.51244 8.69929 4.61934 7.61714 5.02693 6.63375C5.43453 5.65036 6.12453 4.80989 7.0097 4.21858C7.89488 3.62727 8.93551 3.31166 10 3.31166C11.0645 3.31166 12.1052 3.62727 12.9903 4.21858C13.8755 4.80989 14.5655 5.65036 14.9731 6.63375C15.3807 7.61714 15.4876 8.69929 15.2803 9.74342C15.073 10.7875 14.5607 11.7467 13.8084 12.4998ZM7.50002 6.17485C6.82728 6.84966 6.44952 7.76365 6.44952 8.71651C6.44952 9.66937 6.82728 10.5833 7.50002 11.2581C7.99982 11.7588 8.63635 12.1007 9.32973 12.241C10.0231 12.3812 10.7425 12.3136 11.3976 12.0466C12.0527 11.7796 12.6143 11.325 13.0121 10.74C13.4098 10.155 13.626 9.46557 13.6334 8.75818C13.6371 8.28585 13.5461 7.81756 13.3658 7.381C13.1854 6.94444 12.9194 6.54848 12.5834 6.21651C12.2531 5.87866 11.8593 5.60946 11.4245 5.4244C10.9898 5.23934 10.5228 5.14208 10.0504 5.1382C9.5779 5.13433 9.10935 5.22393 8.67167 5.40184C8.23398 5.57975 7.83579 5.84246 7.50002 6.17485ZM11.4084 10.0748C11.0926 10.3954 10.6752 10.5964 10.2276 10.6433C9.78006 10.6903 9.33008 10.5803 8.95461 10.3322C8.57915 10.0841 8.30152 9.71338 8.1692 9.28325C8.03687 8.85312 8.05806 8.39038 8.22915 7.97414C8.40024 7.55791 8.7106 7.21403 9.10717 7.00129C9.50374 6.78856 9.9619 6.72019 10.4033 6.80786C10.8447 6.89553 11.2419 7.13381 11.5271 7.48196C11.8123 7.8301 11.9677 8.26649 11.9667 8.71651C11.9546 9.2309 11.7388 9.71945 11.3667 10.0748H11.4084Z" fill="#EDA708"/>
</svg>
